<?xml version="1.0" encoding="utf-8"?>
<!-- Generator: Adobe Illustrator 24.0.1, SVG Export Plug-In . SVG Version: 6.00 Build 0)  -->
<svg version="1.1" id="Cliengo-Chatbot" xmlns="http://www.w3.org/2000/svg" xmlns:xlink="http://www.w3.org/1999/xlink" x="0px"
	 y="0px" viewBox="0 0 826.6 795" style="enable-background:new 0 0 826.6 795;" xml:space="preserve">
<style type="text/css">
	.st0{opacity:0.6;fill:#66D0C2;enable-background:new    ;}
	.st1{fill:#FFFFFF;}
	.st2{opacity:0.3;fill:#66D0C2;enable-background:new    ;}
	.st3{fill:#66D0C2;}
	.st4{opacity:5.000000e-02;fill:#6A58DB;enable-background:new    ;}
	.st5{fill:#FAFAFA;}
	.st6{fill:#E0E0E0;}
	.st7{opacity:0.6;fill:#FFFFFF;enable-background:new    ;}
	.st8{fill:#9378F8;}
	.st9{opacity:0.17;fill:#6A58DB;enable-background:new    ;}
	.st10{fill:#577AFA;}
	.st11{fill:#7D60F5;}
	.st12{opacity:0.3;}
	.st13{fill:#FFFFFF;stroke:#EBEBED;stroke-width:2;stroke-miterlimit:10;}
	.st14{fill:#6C63FF;}
	.st15{opacity:0.8;fill:#FFFFFF;enable-background:new    ;}
	.st16{opacity:0.7;fill:#FFFFFF;enable-background:new    ;}
	.st17{fill:#A890FB;}
	.st18{fill:#BCA8FD;}
	.st19{fill:#39C2B6;}
	.st20{fill:#89DFCF;}
	.st21{fill:#A8EDDE;}
	.st22{clip-path:url(#SVGID_2_);}
	.st23{fill:#FDBAAC;}
	.st24{fill:#46466D;}
	.st25{fill:#FFC7C6;}
	.st26{fill-rule:evenodd;clip-rule:evenodd;fill:#FFC7C6;}
	.st27{fill:#3C3C5B;}
	.st28{fill:url(#SVGID_3_);}
	.st29{fill:#220C3E;}
</style>
<g>
	<g>
		<path class="st0" d="M577.5,604.1l6.6,5.8c0.7,0.6,0.8,1.7,0.2,2.3l-5.5,6.2c-0.6,0.7-1.6,0.7-2.3,0.1l-6.6-5.8
			c-0.7-0.6-0.8-1.7-0.2-2.3l5.5-6.2C575.8,603.5,576.8,603.5,577.5,604.1z"/>
		<path class="st1" d="M566.6,616.6l6.6,5.8c0.7,0.6,0.8,1.7,0.2,2.3L568,631c-0.6,0.7-1.6,0.7-2.3,0.1l-6.6-5.8
			c-0.7-0.6-0.8-1.7-0.2-2.3l5.5-6.2C564.8,616,565.9,615.9,566.6,616.6z"/>
		<path class="st2" d="M566.6,616.6l6.6,5.8c0.7,0.6,0.8,1.7,0.2,2.3L568,631c-0.6,0.7-1.6,0.7-2.3,0.1l-6.6-5.8
			c-0.7-0.6-0.8-1.7-0.2-2.3l5.5-6.2C564.8,616,565.9,615.9,566.6,616.6z"/>
		<path class="st3" d="M588.4,591.6l6.6,5.8c0.7,0.6,0.8,1.7,0.2,2.3l-5.5,6.2c-0.6,0.7-1.6,0.7-2.3,0.1l-6.6-5.8
			c-0.7-0.6-0.8-1.7-0.2-2.3l5.5-6.2C586.7,591.1,587.7,591,588.4,591.6z"/>
	</g>
	<g>
		<path class="st0" d="M590.1,615.1l6.6,5.8c0.7,0.6,0.8,1.7,0.2,2.3l-5.5,6.2c-0.6,0.7-1.6,0.7-2.3,0.1l-6.6-5.8
			c-0.7-0.6-0.8-1.7-0.2-2.3l5.5-6.2C588.4,614.5,589.4,614.5,590.1,615.1z"/>
		<path class="st1" d="M579.2,627.6l6.6,5.8c0.7,0.6,0.8,1.7,0.2,2.3l-5.5,6.2c-0.6,0.7-1.6,0.7-2.3,0.1l-6.6-5.8
			c-0.7-0.6-0.8-1.7-0.2-2.3l5.5-6.2C577.4,627,578.5,627,579.2,627.6z"/>
		<path class="st2" d="M579.2,627.6l6.6,5.8c0.7,0.6,0.8,1.7,0.2,2.3l-5.5,6.2c-0.6,0.7-1.6,0.7-2.3,0.1l-6.6-5.8
			c-0.7-0.6-0.8-1.7-0.2-2.3l5.5-6.2C577.4,627,578.5,627,579.2,627.6z"/>
		<path class="st3" d="M601,602.7l6.6,5.8c0.7,0.6,0.8,1.7,0.2,2.3l-5.5,6.2c-0.6,0.7-1.6,0.7-2.3,0.1l-6.6-5.8
			c-0.7-0.6-0.8-1.7-0.2-2.3l5.5-6.2C599.3,602.1,600.3,602.1,601,602.7z"/>
	</g>
	<g>
		<path class="st0" d="M602.7,626.2l6.6,5.8c0.7,0.6,0.8,1.7,0.2,2.3l-5.5,6.2c-0.6,0.7-1.6,0.7-2.3,0.1l-6.6-5.8
			c-0.7-0.6-0.8-1.7-0.2-2.3l5.5-6.2C601,625.6,602,625.6,602.7,626.2z"/>
		<path class="st1" d="M591.8,638.7l6.6,5.8c0.7,0.6,0.8,1.7,0.2,2.3l-5.5,6.2c-0.6,0.7-1.6,0.7-2.3,0.1l-6.6-5.8
			c-0.7-0.6-0.8-1.7-0.2-2.3l5.5-6.2C590,638.1,591.1,638,591.8,638.7z"/>
		<path class="st2" d="M591.8,638.7l6.6,5.8c0.7,0.6,0.8,1.7,0.2,2.3l-5.5,6.2c-0.6,0.7-1.6,0.7-2.3,0.1l-6.6-5.8
			c-0.7-0.6-0.8-1.7-0.2-2.3l5.5-6.2C590,638.1,591.1,638,591.8,638.7z"/>
		<path class="st3" d="M613.6,613.7l6.6,5.8c0.7,0.6,0.8,1.7,0.2,2.3l-5.5,6.2c-0.6,0.7-1.6,0.7-2.3,0.1l-6.6-5.8
			c-0.7-0.6-0.8-1.7-0.2-2.3l5.5-6.2C611.9,613.1,612.9,613.1,613.6,613.7z"/>
	</g>
	<g>
		<path class="st0" d="M615.3,637.2l6.6,5.8c0.7,0.6,0.8,1.7,0.2,2.3l-5.5,6.2c-0.6,0.7-1.6,0.7-2.3,0.1l-6.6-5.8
			c-0.7-0.6-0.8-1.7-0.2-2.3l5.5-6.2C613.6,636.6,614.6,636.6,615.3,637.2z"/>
		<path class="st1" d="M604.4,649.7l6.6,5.8c0.7,0.6,0.8,1.7,0.2,2.3l-5.5,6.2c-0.6,0.7-1.6,0.7-2.3,0.1l-6.6-5.8
			c-0.7-0.6-0.8-1.7-0.2-2.3l5.5-6.2C602.6,649.1,603.7,649.1,604.4,649.7z"/>
		<path class="st2" d="M604.4,649.7l6.6,5.8c0.7,0.6,0.8,1.7,0.2,2.3l-5.5,6.2c-0.6,0.7-1.6,0.7-2.3,0.1l-6.6-5.8
			c-0.7-0.6-0.8-1.7-0.2-2.3l5.5-6.2C602.6,649.1,603.7,649.1,604.4,649.7z"/>
		<path class="st3" d="M626.2,624.8l6.6,5.8c0.7,0.6,0.8,1.7,0.2,2.3l-5.5,6.2c-0.6,0.7-1.6,0.7-2.3,0.1l-6.6-5.8
			c-0.7-0.6-0.8-1.7-0.2-2.3l5.5-6.2C624.5,624.2,625.5,624.1,626.2,624.8z"/>
	</g>
	<g>
		<path class="st0" d="M627.9,648.3l6.6,5.8c0.7,0.6,0.8,1.7,0.2,2.3l-5.5,6.2c-0.6,0.7-1.6,0.7-2.3,0.1l-6.6-5.8
			c-0.7-0.6-0.8-1.7-0.2-2.3l5.5-6.2C626.2,647.7,627.2,647.6,627.9,648.3z"/>
		<path class="st1" d="M617,660.7l6.6,5.8c0.7,0.6,0.8,1.7,0.2,2.3l-5.5,6.2c-0.6,0.7-1.6,0.7-2.3,0.1l-6.6-5.8
			c-0.7-0.6-0.8-1.7-0.2-2.3l5.5-6.2C615.2,660.2,616.3,660.1,617,660.7z"/>
		<path class="st2" d="M617,660.7l6.6,5.8c0.7,0.6,0.8,1.7,0.2,2.3l-5.5,6.2c-0.6,0.7-1.6,0.7-2.3,0.1l-6.6-5.8
			c-0.7-0.6-0.8-1.7-0.2-2.3l5.5-6.2C615.2,660.2,616.3,660.1,617,660.7z"/>
		<path class="st3" d="M638.8,635.8l6.6,5.8c0.7,0.6,0.8,1.7,0.2,2.3l-5.5,6.2c-0.6,0.7-1.6,0.7-2.3,0.1l-6.6-5.8
			c-0.7-0.6-0.8-1.7-0.2-2.3l5.5-6.2C637.1,635.2,638.1,635.2,638.8,635.8z"/>
	</g>
</g>
<path class="st4" d="M499,719.4c-61.7-58.5-283,119.4-399.3-155.2C55.8,460.5-5,334.7,65,274.8c147.6-126.1,57.2-238,264.8-264
	c67-8.4,102.8,22.6,156.5,34.4c99.9,21.9,341.9,188.1,315.8,318.3c-22.5,112.6-17.9,134.7-5.3,232.7
	C823.6,805.7,621.7,835.8,499,719.4z"/>
<g id="freepik--chart--inject-5_3_">
	<g>
		<path class="st5" d="M-289.4,3511.6h90.3c4.6,0,8.3,3.7,8.3,8.3v48.8c0,4.6-3.7,8.3-8.3,8.3h-90.3c-4.6,0-8.3-3.7-8.3-8.3V3520
			C-297.8,3515.4-294,3511.6-289.4,3511.6z"/>
		<path class="st6" d="M-199.2,3577.8h-90.2c-5,0-9-4-9-9l0,0V3520c0-5,4-9,9-9h90.2c5,0,9,4,9,9v48.8
			C-190.2,3573.8-194.2,3577.8-199.2,3577.8z M-289.4,3512.3c-4.3,0-7.7,3.5-7.7,7.7v48.8c0,4.3,3.5,7.7,7.7,7.7h90.2
			c4.3,0,7.7-3.5,7.7-7.7V3520c0-4.3-3.5-7.7-7.7-7.7H-289.4z"/>
		<polygon class="st2" points="-219.1,3532 -237.4,3567.8 -200.9,3567.8 		"/>
		<polygon class="st7" points="-244.3,3519.6 -262.6,3567.8 -226,3567.8 		"/>
		<polygon class="st3" points="-269.2,3538.8 -287.5,3567.8 -250.9,3567.8 		"/>
		<path class="st0" d="M-286.9,3523.5h2.9c0.3,0,0.6,0.3,0.6,0.6v2.9c0,0.3-0.3,0.6-0.6,0.6h-2.9c-0.3,0-0.6-0.3-0.6-0.6v-2.9
			C-287.5,3523.7-287.2,3523.5-286.9,3523.5z"/>
		<path class="st1" d="M-286.9,3529.4h2.9c0.3,0,0.6,0.3,0.6,0.6v2.9c0,0.3-0.3,0.6-0.6,0.6h-2.9c-0.3,0-0.6-0.3-0.6-0.6v-2.9
			C-287.5,3529.6-287.2,3529.4-286.9,3529.4z"/>
		<path class="st2" d="M-286.9,3529.4h2.9c0.3,0,0.6,0.3,0.6,0.6v2.9c0,0.3-0.3,0.6-0.6,0.6h-2.9c-0.3,0-0.6-0.3-0.6-0.6v-2.9
			C-287.5,3529.6-287.2,3529.4-286.9,3529.4z"/>
		<polygon class="st0" points="-244.3,3519.6 -262.6,3567.8 -226,3567.8 		"/>
		<path class="st3" d="M-286.9,3517.6h2.9c0.3,0,0.6,0.3,0.6,0.6v2.9c0,0.3-0.3,0.6-0.6,0.6h-2.9c-0.3,0-0.6-0.3-0.6-0.6v-2.9
			C-287.5,3517.9-287.2,3517.6-286.9,3517.6z"/>
	</g>
	<path class="st6" d="M-359.5,3597.7c0,1.5-1.2,2.7-2.7,2.7s-2.7-1.2-2.7-2.7s1.2-2.7,2.7-2.7S-359.5,3596.2-359.5,3597.7
		L-359.5,3597.7z"/>
</g>
<g>
	<path class="st8" d="M536.7,239.6c0.7,2.4,0.8,4.9,0.4,7.4c-0.3,2-1,3.9-2.1,5.6c-1.9,3.3-3.8,6.6-5.8,10
		c-3.9,6.6-7.9,13.1-11.9,19.6s-8.3,12.8-12.6,19.1c-4.3,6.3-8.8,12.5-13.5,18.5c-2,2.2-5.3,2.3-7.4,0.4c-0.2-0.2-0.4-0.4-0.6-0.6
		c-1.6-1.8-2.1-4.4-1.4-6.7c2.8-7.4,6-14.5,9.2-21.6s6.6-14,10.2-20.9s7.1-13.7,10.8-20.4c1.8-3.4,3.8-6.7,5.6-10.1
		c1.9-3.8,5.5-6.4,9.7-7.1C531.4,232.1,535.5,235.1,536.7,239.6z"/>
	<path class="st9" d="M557.9,218.5c-3.6,13.1-12.9,19.5-26.4,9.6c-16.2-11.9-3.7-28.6,5.1-31.9c4.8-1.7,9.7-4,13-7.9
		c2.8-3.3,4.3-7.7,3.3-13.9C559.8,189.8,561.1,206.8,557.9,218.5z"/>
	<path class="st10" d="M550.7,212.7c0.1,0.5-0.2,0.9-0.7,1l0,0c-0.5,0.1-0.9-0.2-1.1-0.6c-0.1-0.5,0.1-0.9,0.6-1.1l0,0h0.1
		C550.2,211.9,550.6,212.2,550.7,212.7L550.7,212.7z"/>
	<path class="st10" d="M548.8,207.8c0.3,1.5-0.6,3-2.1,3.3s-3-0.6-3.3-2.1s0.6-3,2.1-3.3l0,0l0,0C547,205.3,548.5,206.3,548.8,207.8
		z"/>
	<path class="st8" d="M557.9,218.5c-0.7,0-1.3,0-2-0.1c-3.2-0.7-5.8-4-5.1-7.2c-2.6,0.5-5.3-1.5-6.2-4c-0.8-2.6-0.4-5.4,1.1-7.7
		c0.9-1.5,2.2-2.9,3-4.5c1.1-2,1.4-4.4,0.9-6.7c2.8-3.3,4.3-7.7,3.3-13.9C559.8,189.8,561.1,206.8,557.9,218.5z"/>
	<path class="st11" d="M550.7,212.7c0.1,0.5-0.2,0.9-0.7,1l0,0c-0.5,0.1-0.9-0.2-1.1-0.6c-0.1-0.5,0.1-0.9,0.6-1.1l0,0h0.1
		C550.2,211.9,550.6,212.2,550.7,212.7L550.7,212.7z"/>
	<path class="st11" d="M548.8,207.8c0.3,1.5-0.6,3-2.1,3.3s-3-0.6-3.3-2.1s0.6-3,2.1-3.3l0,0l0,0C547,205.3,548.5,206.3,548.8,207.8
		z"/>
</g>
<g id="elu6bq93h0agh">
	<g class="st12">
		<path id="eluya55itin9" class="st8" d="M194,211.5l-0.1-0.2c-0.2-0.6,0.1-1.2,0.7-1.4l0,0l0,0c2.5-0.7,5-1.4,7.6-2.1
			c0.6-0.2,1.2,0.2,1.4,0.8l0,0c0.2,0.6-0.2,1.2-0.8,1.4l0,0c-2.5,0.7-5,1.4-7.5,2.1C194.8,212.2,194.3,212,194,211.5z"/>
		<path id="elnwc6pit6cp" class="st8" d="M216.9,205.7l-0.1-0.2c-0.1-0.6,0.2-1.2,0.8-1.3l0,0l0,0c5.1-1.1,10.4-2.1,15.6-2.9
			c0.6-0.1,1.2,0.3,1.4,0.9c0.1,0.6-0.3,1.2-0.9,1.4c-5.1,0.9-10.4,1.9-15.5,2.9C217.6,206.5,217.1,206.2,216.9,205.7z M248,200.5
			c-0.1-0.1-0.1-0.2-0.2-0.4c-0.1-0.6,0.4-1.2,1-1.2l0,0l0,0c5.2-0.6,10.5-1.1,15.8-1.5c0.6,0,1.1,0.4,1.2,1l0,0
			c0,0.6-0.4,1.1-1,1.2c-5.2,0.4-10.5,0.9-15.7,1.4C248.7,201.2,248.3,200.9,248,200.5L248,200.5z M279.5,198.4
			c-0.1-0.1-0.1-0.3-0.1-0.5c0-0.6,0.4-1.1,1-1.1h0.1c5.2-0.2,10.6-0.1,15.8,0c0.6,0,1.1,0.5,1.1,1.1l0,0l0,0c0,0.6-0.5,1.1-1.1,1.1
			l0,0l0,0c-5.2-0.1-10.5-0.1-15.7,0C280.1,199,279.7,198.7,279.5,198.4L279.5,198.4z M577.3,701c-0.2-0.3-0.2-0.7,0-1.1
			c2.7-4.5,5.1-9.1,7.5-13.8c0.3-0.5,0.9-0.7,1.4-0.5l0,0l0,0c0.5,0.3,0.8,0.9,0.5,1.5c-2.4,4.7-4.9,9.3-7.6,13.9
			c-0.3,0.5-1,0.7-1.5,0.4l0,0C577.5,701.3,577.4,701.2,577.3,701z M403.3,219.1c-0.1-0.3-0.1-0.6,0-0.9c0.2-0.6,0.8-0.9,1.4-0.7
			l0,0l0,0c4.9,1.8,9.9,3.8,14.7,5.8c0.5,0.3,0.7,1,0.5,1.5c-0.3,0.5-0.8,0.7-1.3,0.5c-4.8-2-9.7-4-14.6-5.8
			C403.7,219.5,403.4,219.3,403.3,219.1z M432.3,231.4c-0.3-0.5-0.1-1.2,0.5-1.5l0,0c0.3-0.2,0.7-0.2,1,0c4.8,2.3,9.5,4.7,14.1,7.2
			c0.6,0.2,0.9,0.8,0.8,1.4c-0.2,0.6-0.8,0.9-1.4,0.8c-0.1,0-0.1,0-0.2-0.1c-0.1,0-0.2-0.1-0.2-0.1c-4.6-2.4-9.3-4.8-14-7.1
			C432.6,231.8,432.4,231.6,432.3,231.4z M459.9,246.4c-0.3-0.6-0.1-1.2,0.5-1.5c0.3-0.2,0.7-0.2,1.1,0c4.5,2.7,9,5.6,13.3,8.5
			c0.6,0.3,0.8,1,0.5,1.5c-0.3,0.6-1,0.8-1.5,0.5c0,0-0.1,0-0.1-0.1l-0.1-0.1c-4.3-2.8-8.8-5.7-13.3-8.4c-0.1-0.1-0.2-0.3-0.3-0.5
			L459.9,246.4z M621.7,551.2c-0.1-0.2-0.1-0.4-0.1-0.6c0.3-5.2,0.4-10.5,0.5-15.7c0-0.6,0.5-1.1,1.1-1.1s1.1,0.5,1.1,1.1
			c0,0,0,0,0,0.1c0,5.3-0.2,10.6-0.5,15.8c0,0.6-0.6,1.1-1.2,1C622.2,551.8,621.9,551.6,621.7,551.2L621.7,551.2z M621.9,519.7
			c-0.1-0.1-0.2-0.3-0.2-0.4c-0.2-5.2-0.6-10.5-1-15.7c-0.1-0.6,0.4-1.1,1-1.2l0,0c0.6,0,1.2,0.4,1.2,1c0.4,5.2,0.8,10.5,1,15.8
			c0,0.6-0.5,1.1-1.1,1.2l0,0C622.4,520.3,622,520.1,621.9,519.7L621.9,519.7z M553.2,329.9c-0.3-0.5-0.2-1.2,0.4-1.5
			c0.5-0.3,1.2-0.2,1.5,0.4l0,0c3.2,4.2,6.3,8.5,9.3,12.8c0.4,0.5,0.3,1.1-0.2,1.5l0,0h-0.1c-0.5,0.4-1.2,0.2-1.5-0.3
			C559.5,338.5,556.5,334.2,553.2,329.9L553.2,329.9z M532.2,305.4c-0.3-0.5-0.3-1.2,0.3-1.5c0.5-0.3,1.2-0.3,1.5,0.3l0,0
			c3.5,3.9,7,7.9,10.4,12c0.4,0.5,0.4,1.1-0.1,1.5l0,0h-0.1c-0.5,0.4-1.2,0.3-1.5-0.2C539.2,313.5,535.8,309.4,532.2,305.4
			L532.2,305.4z M571,355.8c-0.2-0.6,0-1.2,0.6-1.5c0.5-0.2,1.1,0,1.4,0.5c2.8,4.4,5.5,9,8,13.6c0.3,0.5,0.1,1.2-0.4,1.5
			s-1.2,0.1-1.5-0.4c-2.6-4.6-5.3-9.1-8-13.5L571,355.8z M593.1,397.6L593.1,397.6c-2.1-4.8-4.4-9.5-6.7-14.1
			c-0.2-0.6,0-1.2,0.6-1.5c0.5-0.2,1.1,0,1.4,0.5l0,0c2.4,4.7,4.6,9.5,6.8,14.3c0.3,0.6,0,1.2-0.5,1.5l0,0l0,0
			c-0.6,0.1-1.1-0.2-1.3-0.8L593.1,397.6z"/>
		<path id="el9or3f48vu4q" class="st8" d="M564.7,721c-0.2-0.4-0.2-0.8,0-1.1c1.4-2.1,2.8-4.3,4.2-6.5c0.4-0.5,1.1-0.6,1.6-0.2
			c0.4,0.3,0.6,0.9,0.3,1.4c-1.4,2.2-2.8,4.3-4.3,6.5c-0.3,0.5-1,0.7-1.5,0.3l0,0l0,0C564.9,721.3,564.8,721.2,564.7,721z"/>
	</g>
</g>
<g id="elkunidumzewb">
	<path class="st13" d="M544,618.8l47.1-55.2c3.3-3.9,9.3-4.4,13.2-1.1l66.9,57c3.9,3.3,4.4,9.3,1.1,13.2l-47.1,55.2
		c-3.3,3.9-9.3,4.4-13.2,1.1l-66.9-57C541.1,628.6,540.6,622.7,544,618.8z"/>
</g>
<path id="elenrp34s1258" class="st11" d="M671,619l-66.5-57.5c-3.9-3.4-9.8-2.9-13.2,1l0,0l0,0l-6.6,7.6c-0.8,1-0.7,2.5,0.3,3.4
	l77,66.6c1,0.8,2.5,0.7,3.4-0.3l6.6-7.6C675.3,628.2,674.9,622.3,671,619L671,619z"/>
<g>
	<path id="elbr39btl0dri" class="st1" d="M660.1,620.7L660.1,620.7c-1.1-1-1.3-2.8-0.3-4l5-6.5c0.8-1.2,2.4-1.4,3.6-0.6l0,0l0.2,0.2
		l0,0c1.1,1,1.2,2.7,0.3,3.9l-5,6.5C663,621.4,661.4,621.6,660.1,620.7L660.1,620.7L660.1,620.7z"/>
	<path id="el4qohnfphye2" class="st1" d="M648.9,611L648.9,611c-1.1-1-1.3-2.8-0.3-4l5-6.5c0.9-1.2,2.5-1.4,3.7-0.5
		c0.1,0,0.1,0.1,0.2,0.1l0,0c1.1,1,1.3,2.7,0.3,3.9l-5,6.5c-0.9,1.2-2.5,1.4-3.7,0.5H648.9z"/>
	<path id="elvrwreg11kpk" class="st1" d="M637.6,601.3L637.6,601.3c-1.1-1-1.3-2.7-0.4-4l5-6.5c0.9-1.2,2.5-1.4,3.7-0.5l0,0l0.1,0.1
		l0,0c1.1,1,1.3,2.8,0.3,4l-5,6.5C640.5,602.1,638.8,602.3,637.6,601.3L637.6,601.3z"/>
	<path id="elijq0vrkcib" class="st1" d="M626.4,591.7L626.4,591.7c-1.1-1-1.3-2.8-0.3-4l5-6.5c0.9-1.2,2.5-1.4,3.7-0.5l0,0l0.2,0.1
		l0,0c1.1,1,1.3,2.8,0.3,4l-5,6.5c-0.9,1.2-2.5,1.4-3.6,0.5L626.4,591.7z"/>
	<path id="el0ymyb52vtvt" class="st1" d="M615.2,582.1L615.2,582.1c-1.1-1-1.3-2.8-0.3-4l5-6.5c0.9-1.2,2.5-1.4,3.7-0.5
		c0.1,0,0.1,0.1,0.2,0.1l0,0c1.1,1,1.3,2.8,0.3,4l-5.1,6.6C618,582.9,616.3,583,615.2,582.1L615.2,582.1L615.2,582.1z"/>
	<path id="els9sflazpyda" class="st1" d="M604,572.4L604,572.4c-1.2-1-1.4-2.8-0.5-4.1l5-6.5c0.9-1.1,2.5-1.4,3.7-0.5l0.1,0.1l0,0
		c1.1,1,1.3,2.7,0.4,4l-5,6.5C606.9,573.1,605.2,573.4,604,572.4L604,572.4z"/>
</g>
<path id="elckpz1lrrcl6" class="st14" d="M321.6,229.1L321.6,229.1c-8.3-1.5-13.8-9.5-12.3-17.8l24.6-139.7l30.2,5.3l-24.7,139.8
	C337.9,225,330,230.6,321.6,229.1C321.7,229.1,321.7,229.1,321.6,229.1L321.6,229.1z"/>
<g id="elg7zuhc4ub6h">
	<path class="st15" d="M321.6,229.1L321.6,229.1c-8.3-1.5-13.8-9.5-12.3-17.8l24.6-139.7l30.2,5.3l-24.7,139.8
		C337.9,225,330,230.6,321.6,229.1C321.7,229.1,321.7,229.1,321.6,229.1L321.6,229.1z"/>
</g>
<path id="elhkhw67lkk7f" class="st14" d="M339,216.9L339,216.9c-7.3-4.2-9.8-13.6-5.6-20.9l0,0l71-122.9l26.5,15.3l-71,122.9
	C355.7,218.7,346.3,221.2,339,216.9L339,216.9L339,216.9z"/>
<g id="eldn5v5sgimf">
	<path class="st16" d="M339,216.9L339,216.9c-7.3-4.2-9.8-13.6-5.6-20.9l0,0l71-122.9l26.5,15.3l-71,122.9
		C355.7,218.7,346.3,221.2,339,216.9L339,216.9L339,216.9z"/>
</g>
<path id="elm5qjflu1jp" class="st14" d="M354.3,221.4L354.3,221.4c-5.4-6.5-4.6-16.1,1.9-21.6L465,108.7l19.7,23.5l-108.8,91.2
	C369.4,228.8,359.7,227.9,354.3,221.4C354.3,221.5,354.3,221.5,354.3,221.4L354.3,221.4z"/>
<g id="eltc1yynjku1n">
	<path class="st7" d="M354.3,221.4L354.3,221.4c-5.4-6.5-4.6-16.1,1.9-21.6L465,108.7l19.7,23.5l-108.8,91.2
		C369.4,228.8,359.7,227.9,354.3,221.4C354.3,221.5,354.3,221.5,354.3,221.4L354.3,221.4z"/>
</g>
<path class="st17" d="M554.8,442.9c-2.6-0.1-4.8,1.9-4.9,4.5c-0.1,2.6,1.9,4.8,4.5,4.9c0.1,0,0.3,0,0.4,0h95
	c2.6,0.1,4.8-1.9,4.9-4.5c0.1-2.6-1.9-4.8-4.5-4.9c-0.1,0-0.3,0-0.4,0H554.8z"/>
<path class="st17" d="M552.6,418.8h213c1.5,0,2.7,1.2,2.7,2.7v4.3c0,1.5-1.2,2.7-2.7,2.7h-213c-1.5,0-2.7-1.2-2.7-2.7v-4.3
	C549.9,420,551.1,418.8,552.6,418.8z"/>
<path class="st17" d="M556.7,466.8c-3.5,0-6.4,2-6.4,4.5s2.8,4.5,6.4,4.5h128.9c3.5,0,6.4-2,6.4-4.5s-2.8-4.5-6.4-4.5H556.7z"/>
<g>
	<g id="el1yv61cacjx7">
		
			<rect x="450.4" y="112" transform="matrix(0.7677 -0.6408 0.6408 0.7677 25.6054 325.1927)" class="st11" width="21.8" height="30.6"/>
	</g>
	<g id="el1yv61cacjx7-2">
		
			<rect x="432.2" y="127.3" transform="matrix(0.7677 -0.6408 0.6408 0.7677 11.561 317.0586)" class="st8" width="21.8" height="30.6"/>
	</g>
	<g id="el1yv61cacjx7-3">
		
			<rect x="413.9" y="142.4" transform="matrix(0.7677 -0.6408 0.6408 0.7677 -2.3944 308.8333)" class="st17" width="21.8" height="30.6"/>
	</g>
	<g id="el1yv61cacjx7-4">
		
			<rect x="395.7" y="157.8" transform="matrix(0.7677 -0.6408 0.6408 0.7677 -16.4489 300.7938)" class="st18" width="21.8" height="30.6"/>
	</g>
</g>
<g>
	<g id="el1yv61cacjx7_1_">
		
			<rect x="395.8" y="76.3" transform="matrix(0.5043 -0.8635 0.8635 0.5043 122.4967 396.5407)" class="st19" width="21.8" height="30.6"/>
	</g>
	<g id="el1yv61cacjx7-2_1_">
		
			<rect x="383.8" y="96.9" transform="matrix(0.5043 -0.8635 0.8635 0.5043 98.79 396.4214)" class="st3" width="21.8" height="30.6"/>
	</g>
	<g id="el1yv61cacjx7-3_1_">
		
			<rect x="371.7" y="117.3" transform="matrix(0.5043 -0.8635 0.8635 0.5043 75.1297 396.1218)" class="st20" width="21.8" height="30.6"/>
	</g>
	<g id="el1yv61cacjx7-4_1_">
		
			<rect x="359.9" y="137.9" transform="matrix(0.5043 -0.8635 0.8635 0.5043 51.4788 396.1297)" class="st21" width="21.8" height="30.6"/>
	</g>
</g>
<g>
	<g id="el1yv61cacjx7_2_">
		
			<rect x="330.8" y="72.4" transform="matrix(0.1625 -0.9867 0.9867 0.1625 199.617 410.6396)" class="st11" width="21.8" height="30.6"/>
	</g>
	<g id="el1yv61cacjx7-2_2_">
		
			<rect x="327" y="95.9" transform="matrix(0.1625 -0.9867 0.9867 0.1625 173.2346 426.5661)" class="st8" width="21.8" height="30.6"/>
	</g>
	<g id="el1yv61cacjx7-3_2_">
		
			<rect x="323" y="119.4" transform="matrix(0.1625 -0.9867 0.9867 0.1625 146.7818 442.2612)" class="st17" width="21.8" height="30.6"/>
	</g>
	<g id="el1yv61cacjx7-4_2_">
		
			<rect x="319.3" y="142.8" transform="matrix(0.1625 -0.9867 0.9867 0.1625 120.5476 458.2911)" class="st18" width="21.8" height="30.6"/>
	</g>
</g>
<path class="st1" d="M227.8,520.5c-15,1.5-29.8-0.8-44.5-2.2c-16.4-1.6-32.9-2.1-49.4-1.6c-17.6,0.5-35.4,2.3-51.9,7.4
	s-31.9,14-40.5,26c-14.6,20.3-7.5,44.7,3.4,65.2c12.9,24.3,31,47.2,56.2,64.9c17.9,12.5,39,22.2,59.9,31.7
	c11.8,5.4,23.7,10.8,36.9,14.3c12.2,3.2,25.3,4.5,38.2,5.8c13.8,1.4,27.6,2.8,41.7,3.1c44.7,1,89.3-9,132.7-19.5
	c15.3-3.7,31.2-7.7,42.8-16.3c9-6.8,14.5-15.7,18.2-24.8c4.8-11.9,6.5-25.2-1.1-35.7c-11.3-15.4-38.9-19.9-51.2-34.8
	c-15.7-19.2,0.3-46.5-10.6-67.6c-4.6-8.8-13.5-15.7-22.6-21.9c-21.9-14.9-49.2-26.9-80.3-17.5C279.3,504.8,256.6,517.6,227.8,520.5z
	"/>
<path class="st9" d="M227.9,520c-15,1.5-29.8-0.8-44.5-2.2c-16.4-1.6-32.9-2.1-49.4-1.6c-17.6,0.5-35.4,2.3-51.9,7.4
	s-31.9,14-40.5,26C27,569.9,34,594.3,45,614.8c12.9,24.3,31,47.2,56.2,64.9c17.9,12.5,39,22.2,59.9,31.7
	c11.8,5.4,23.7,10.8,36.9,14.3c12.2,3.2,25.3,4.5,38.2,5.8c13.8,1.4,27.7,2.8,41.7,3.1c44.7,1,89.3-9,132.8-19.5
	c15.3-3.7,31.2-7.7,42.8-16.3c9-6.8,14.5-15.7,18.2-24.8c4.8-11.9,6.5-25.2-1.1-35.7c-11.3-15.4-38.9-19.9-51.2-34.8
	c-15.7-19.2,0.3-46.5-10.6-67.6c-4.6-8.8-13.5-15.7-22.6-21.9c-21.9-14.9-49.2-26.9-80.3-17.5C279.4,504.3,256.7,517.1,227.9,520z"
	/>
<g>
	<g>
		<g>
			<defs>
				<path id="SVGID_1_" d="M118.8,305.6c0,0,138.6-17.2,144.1-17.2s199.8,101.2,199.8,101.2L484,662l-51,50
					c0,0-296.3,104.5-391.2-132.5S118.8,305.6,118.8,305.6z"/>
			</defs>
			<clipPath id="SVGID_2_">
				<use xlink:href="#SVGID_1_"  style="overflow:visible;"/>
			</clipPath>
			<g class="st22">
				<path class="st23" d="M241.3,405.4l-2,66.4l-22.4-16.5l-3.1-61.7C209.6,383.4,242.3,405,241.3,405.4z"/>
				<path class="st23" d="M224.1,660c-10.3-1-17.8-10.1-16.8-20.4c0.1-1.1,0.3-2.2,0.6-3.2l-47.6-44.3l25.2-6.4l46.8,38
					c9.8,3.4,14.9,14.2,11.5,23.9C240.9,655.9,232.7,661,224.1,660L224.1,660z"/>
				<path class="st24" d="M318.7,970.9H284c-4.6,0-8.4-3.5-8.8-8l-21.1-219c-0.5-3.8-4-6.6-7.8-6.1c-2.7,0.3-5,2.2-5.8,4.8
					l-61.2,204.7c-1.4,4.5-6,7.2-10.6,6l-32.3-8.1c-4.7-1.2-7.6-5.9-6.4-10.7l0,0v-0.1c0.5-2.1,52.8-206.1,53.2-208.3
					c11.8-87.2,26-110.6,33.6-123.1c0.6-1,1.2-2,1.7-2.9c0.7-1.1,4.7-12.3,7.2-19.6c0.7-2.4,2.3-4.4,4.6-5.5c32-16.3,69.3-5,80-1.2
					c1.8,0.6,3.3,1.8,4.3,3.4c32.1,48.4,16.3,329.5,12.9,385.4C327.2,967.3,323.3,970.9,318.7,970.9z"/>
				<circle class="st25" cx="227.9" cy="375.1" r="45.6"/>
				<path class="st26" d="M240.5,415.5c-6.2,5.8-14.1,15.1-18.7,22.5c-12.5-12.1-27.3-31.8-20.5-43.1c1.1-1.1,2.3-2.2,3.4-3.2
					c0-0.3-0.1-0.6-0.1-0.9c-1.8-7.3-7.4-16.5-7.2-26.6c0.3-16.1,7.1-31.9,24.3-38.4c31.4-11.9,58.9,12.5,57.7,44.1
					c-0.2,6.2-5.7,7.8-7.1,12.7c-0.3,1,0.7,2.4,1,4.8c0.5,3.4-6.5,22.3-13.2,29.4c-2.7,2.9-13.1,0.9-17.5-0.2
					C242.2,416.5,241.5,416.1,240.5,415.5z"/>
				<path class="st18" d="M224.2,589.4l-0.3-0.3c-0.6-0.6-61.4-60.1-53.5-115.2c3.4-23.5,22.4-38.6,55.1-43.5
					c24.8-3.7,48.6,11.4,55.7,35.5l32.3,110.4L224.2,589.4z"/>
				<path class="st18" d="M196.4,627.4c-1.8,2.3-5.1,2.5-7.1,0.5l-39.5-39.2c-6-6-8.5-14.7-6.5-23l21-85.3
					c2.5-10.3,12.9-16.6,23.2-14.1l0,0c0.3,0.1,0.7,0.2,1,0.2c0.1,0,0.3,0.1,0.4,0.1c9.8,3.3,15.3,13.7,12.4,23.7L180,562.8
					c-0.5,1.6-0.1,3.4,1.1,4.6l31.1,33.3c1.6,1.7,1.7,4.3,0.3,6.2L196.4,627.4z"/>
				<path class="st25" d="M344.6,492.5l53.8-24.7l-2.3,20.7l-47.7,26.1C342.4,521.3,343.7,492,344.6,492.5z"/>
				<path class="st27" d="M251.1,648c0,0-4.4,25.2-19,33.9c0,0,5,41.2-10.5,123.9l14.8-49.3l4.1-13.9l6-4.9L251.1,648z"/>
				
					<linearGradient id="SVGID_3_" gradientUnits="userSpaceOnUse" x1="129.8492" y1="331.2444" x2="278.245" y2="331.2444" gradientTransform="matrix(1 0 0 -1 0 750)">
					<stop  offset="0.6" style="stop-color:#513166"/>
					<stop  offset="0.8" style="stop-color:#4F3064"/>
					<stop  offset="0.88" style="stop-color:#482A5F"/>
					<stop  offset="0.93" style="stop-color:#3D2155"/>
					<stop  offset="0.97" style="stop-color:#2C1446"/>
					<stop  offset="0.99" style="stop-color:#220C3E"/>
				</linearGradient>
				<path class="st28" d="M241.6,386.1c5.7-7.1,16.4-7.6,24.3-12.3c10.3-6.2,14.6-20.1,11.2-31.6s-13.1-20.6-24.3-24.9
					s-23.7-4.4-35.6-2.3c-17.6,3.1-35,11.3-45.8,25.7c-10.8,14.3-13.5,35.3-3.7,50.3c4.5,6.9,11.4,12.6,13.2,20.6
					c2.4,10.5-5.1,20.7-13,28.1c-9,8.4-19.4,15.4-27.3,24.8s-13.2,22.3-9.6,34.1c3.1,9.9,11.8,17.1,21.5,20.8s20.2,4.2,30.5,4.4
					c10,0.2,20.6,0,29.1-5.4c9-5.8,13.9-16.7,14.3-27.5c0.4-10.8-3.2-21.2-8-30.8c-2.9-5.7-6.2-11.3-8.1-17.4
					c-1.9-6.1-2.2-13,0.8-18.6c3.2-5.9,9.7-9.5,16.3-10.8l3.1-0.2c7.7-1,11.1-8,10.1-15.7c0-0.2-0.1-0.4-0.1-0.6
					C239.6,392.6,239.6,388.6,241.6,386.1z"/>
				<path class="st29" d="M210,443.7c-0.1-0.3-0.2-0.6-0.3-1c0.1,1.5,0.2,3,0.3,4.5c0.5,9.7-0.3,20.7-3.7,29.8
					c-3.4,9-10,16.6-15.8,24.1c-5.6,7.2-11.3,14.3-16.4,21.8c3.1,0.2,6.1,0.3,9.2,0.3c9.8,0.2,20.3,0,28.6-5.3
					c8.9-5.7,13.6-16.5,14-27s-3.2-20.8-7.9-30.3C215.1,455.2,211.9,449.7,210,443.7z"/>
				<path class="st29" d="M273.8,334.7c-3.3-4.4-19.8,10.6-34,28.6c-4.5,7.4-7.6,15.5-8.7,24c-0.8,6.8-0.3,14.1,2.4,20.5
					c0.5,1.2,1.1,2.4,1.7,3.5c3.8-2.9,6-7.7,5.3-12.8c0-0.2-0.1-0.4-0.1-0.6c-0.7-4.2-0.6-8.2,1.3-10.6c5.7-7.1,16.4-7.5,24.3-12.3
					C276.3,368.7,287.2,352.4,273.8,334.7z"/>
				<path class="st8" d="M283.9,521.3c-1.7,22.4-11.2,43.5-23,62.8l52.6-7.7l-32.3-110.5c-1-3.3-2.3-6.5-3.9-9.4
					C280.9,478,285.6,499.4,283.9,521.3z"/>
			</g>
		</g>
	</g>
</g>
<path class="st18" d="M179.1,424.7l0.4-3c0,0,20.4-2,29.2,7.1l-1.6,4.2C207.1,433.1,185.8,433.4,179.1,424.7z"/>
<path class="st18" d="M379.6,496.2c2,3.6,0.5,8.1-3.2,9.7l-49.2,21.2c-7.6,3.3-16.4,2.3-23.2-2.5l-71.6-51.3
	c-8.6-6.2-10.6-18.2-4.4-26.8c0.3-0.3,0.5-0.7,0.8-1c6.7-8,18.5-9.3,26.8-2.9l58.3,46c1.9,1.5,4.5,1.9,6.7,1l39.7-15.4
	c3.2-1.2,6.7,0,8.4,3L379.6,496.2z"/>
<path class="st25" d="M385.2,456.4c0.2-1.5,0.8-2.9,1.7-4.1c1-1.2,2.8-1.3,3.9-0.3c0.6,0.6,0.7,1.6,1.2,2.4c1.1,1.8,3.2,2.7,5.3,2.3
	c2-0.4,3.9-1.2,5.6-2.3c5-2.8,10.2-5.4,15.6-7.6c1.2-0.7,2.6-0.9,4-0.7c1.5,0.5,2.7,1.6,3.3,3c3.4,6.5,3.2,14.3-0.4,20.6
	c-3.6,6.3-9.1,11.3-15.7,14.2c-6.6,3-13.5,5.1-20.6,6.4c-1.8,0.6-3.6,0.6-5.4,0.1C374.3,486.6,383.8,462.4,385.2,456.4z"/>
<g>
	<g>
		<path class="st0" d="M577.5,604.1l6.6,5.8c0.7,0.6,0.8,1.7,0.2,2.3l-5.5,6.2c-0.6,0.7-1.6,0.7-2.3,0.1l-6.6-5.8
			c-0.7-0.6-0.8-1.7-0.2-2.3l5.5-6.2C575.8,603.5,576.8,603.5,577.5,604.1z"/>
		<path class="st1" d="M566.6,616.6l6.6,5.8c0.7,0.6,0.8,1.7,0.2,2.3L568,631c-0.6,0.7-1.6,0.7-2.3,0.1l-6.6-5.8
			c-0.7-0.6-0.8-1.7-0.2-2.3l5.5-6.2C564.8,616,565.9,615.9,566.6,616.6z"/>
		<path class="st2" d="M566.6,616.6l6.6,5.8c0.7,0.6,0.8,1.7,0.2,2.3L568,631c-0.6,0.7-1.6,0.7-2.3,0.1l-6.6-5.8
			c-0.7-0.6-0.8-1.7-0.2-2.3l5.5-6.2C564.8,616,565.9,615.9,566.6,616.6z"/>
		<path class="st3" d="M588.4,591.6l6.6,5.8c0.7,0.6,0.8,1.7,0.2,2.3l-5.5,6.2c-0.6,0.7-1.6,0.7-2.3,0.1l-6.6-5.8
			c-0.7-0.6-0.8-1.7-0.2-2.3l5.5-6.2C586.7,591.1,587.7,591,588.4,591.6z"/>
	</g>
	<g>
		<path class="st0" d="M590.1,615.1l6.6,5.8c0.7,0.6,0.8,1.7,0.2,2.3l-5.5,6.2c-0.6,0.7-1.6,0.7-2.3,0.1l-6.6-5.8
			c-0.7-0.6-0.8-1.7-0.2-2.3l5.5-6.2C588.4,614.5,589.4,614.5,590.1,615.1z"/>
		<path class="st1" d="M579.2,627.6l6.6,5.8c0.7,0.6,0.8,1.7,0.2,2.3l-5.5,6.2c-0.6,0.7-1.6,0.7-2.3,0.1l-6.6-5.8
			c-0.7-0.6-0.8-1.7-0.2-2.3l5.5-6.2C577.4,627,578.5,627,579.2,627.6z"/>
		<path class="st2" d="M579.2,627.6l6.6,5.8c0.7,0.6,0.8,1.7,0.2,2.3l-5.5,6.2c-0.6,0.7-1.6,0.7-2.3,0.1l-6.6-5.8
			c-0.7-0.6-0.8-1.7-0.2-2.3l5.5-6.2C577.4,627,578.5,627,579.2,627.6z"/>
		<path class="st3" d="M601,602.7l6.6,5.8c0.7,0.6,0.8,1.7,0.2,2.3l-5.5,6.2c-0.6,0.7-1.6,0.7-2.3,0.1l-6.6-5.8
			c-0.7-0.6-0.8-1.7-0.2-2.3l5.5-6.2C599.3,602.1,600.3,602.1,601,602.7z"/>
	</g>
	<g>
		<path class="st0" d="M602.7,626.2l6.6,5.8c0.7,0.6,0.8,1.7,0.2,2.3l-5.5,6.2c-0.6,0.7-1.6,0.7-2.3,0.1l-6.6-5.8
			c-0.7-0.6-0.8-1.7-0.2-2.3l5.5-6.2C601,625.6,602,625.6,602.7,626.2z"/>
		<path class="st1" d="M591.8,638.7l6.6,5.8c0.7,0.6,0.8,1.7,0.2,2.3l-5.5,6.2c-0.6,0.7-1.6,0.7-2.3,0.1l-6.6-5.8
			c-0.7-0.6-0.8-1.7-0.2-2.3l5.5-6.2C590,638.1,591.1,638,591.8,638.7z"/>
		<path class="st2" d="M591.8,638.7l6.6,5.8c0.7,0.6,0.8,1.7,0.2,2.3l-5.5,6.2c-0.6,0.7-1.6,0.7-2.3,0.1l-6.6-5.8
			c-0.7-0.6-0.8-1.7-0.2-2.3l5.5-6.2C590,638.1,591.1,638,591.8,638.7z"/>
		<path class="st3" d="M613.6,613.7l6.6,5.8c0.7,0.6,0.8,1.7,0.2,2.3l-5.5,6.2c-0.6,0.7-1.6,0.7-2.3,0.1l-6.6-5.8
			c-0.7-0.6-0.8-1.7-0.2-2.3l5.5-6.2C611.9,613.1,612.9,613.1,613.6,613.7z"/>
	</g>
	<g>
		<path class="st0" d="M615.3,637.2l6.6,5.8c0.7,0.6,0.8,1.7,0.2,2.3l-5.5,6.2c-0.6,0.7-1.6,0.7-2.3,0.1l-6.6-5.8
			c-0.7-0.6-0.8-1.7-0.2-2.3l5.5-6.2C613.6,636.6,614.6,636.6,615.3,637.2z"/>
		<path class="st1" d="M604.4,649.7l6.6,5.8c0.7,0.6,0.8,1.7,0.2,2.3l-5.5,6.2c-0.6,0.7-1.6,0.7-2.3,0.1l-6.6-5.8
			c-0.7-0.6-0.8-1.7-0.2-2.3l5.5-6.2C602.6,649.1,603.7,649.1,604.4,649.7z"/>
		<path class="st2" d="M604.4,649.7l6.6,5.8c0.7,0.6,0.8,1.7,0.2,2.3l-5.5,6.2c-0.6,0.7-1.6,0.7-2.3,0.1l-6.6-5.8
			c-0.7-0.6-0.8-1.7-0.2-2.3l5.5-6.2C602.6,649.1,603.7,649.1,604.4,649.7z"/>
		<path class="st3" d="M626.2,624.8l6.6,5.8c0.7,0.6,0.8,1.7,0.2,2.3l-5.5,6.2c-0.6,0.7-1.6,0.7-2.3,0.1l-6.6-5.8
			c-0.7-0.6-0.8-1.7-0.2-2.3l5.5-6.2C624.5,624.2,625.5,624.1,626.2,624.8z"/>
	</g>
	<g>
		<path class="st0" d="M627.9,648.3l6.6,5.8c0.7,0.6,0.8,1.7,0.2,2.3l-5.5,6.2c-0.6,0.7-1.6,0.7-2.3,0.1l-6.6-5.8
			c-0.7-0.6-0.8-1.7-0.2-2.3l5.5-6.2C626.2,647.7,627.2,647.6,627.9,648.3z"/>
		<path class="st1" d="M617,660.7l6.6,5.8c0.7,0.6,0.8,1.7,0.2,2.3l-5.5,6.2c-0.6,0.7-1.6,0.7-2.3,0.1l-6.6-5.8
			c-0.7-0.6-0.8-1.7-0.2-2.3l5.5-6.2C615.2,660.2,616.3,660.1,617,660.7z"/>
		<path class="st2" d="M617,660.7l6.6,5.8c0.7,0.6,0.8,1.7,0.2,2.3l-5.5,6.2c-0.6,0.7-1.6,0.7-2.3,0.1l-6.6-5.8
			c-0.7-0.6-0.8-1.7-0.2-2.3l5.5-6.2C615.2,660.2,616.3,660.1,617,660.7z"/>
		<path class="st3" d="M638.8,635.8l6.6,5.8c0.7,0.6,0.8,1.7,0.2,2.3l-5.5,6.2c-0.6,0.7-1.6,0.7-2.3,0.1l-6.6-5.8
			c-0.7-0.6-0.8-1.7-0.2-2.3l5.5-6.2C637.1,635.2,638.1,635.2,638.8,635.8z"/>
	</g>
</g>
</svg>
