<?xml version="1.0" encoding="UTF-8"?>
<svg xmlns="http://www.w3.org/2000/svg" xmlns:xlink="http://www.w3.org/1999/xlink" width="150px" height="150px" viewBox="0 0 384 384" version="1.1">
<g id="surface1">
<path style=" stroke:none;fill-rule:nonzero;fill:rgb(57.647059%,78.039216%,93.72549%);fill-opacity:1;" d="M 226.910156 52.363281 C 226.910156 33.082031 211.277344 17.453125 192 17.453125 C 172.722656 17.453125 157.089844 33.082031 157.089844 52.363281 C 157.089844 65.28125 164.113281 76.554688 174.546875 82.589844 L 174.546875 145.453125 L 209.453125 145.453125 L 209.453125 82.589844 C 219.886719 76.554688 226.910156 65.28125 226.910156 52.363281 Z M 226.910156 52.363281 "/>
<path style=" stroke:none;fill-rule:nonzero;fill:rgb(35.294118%,54.509804%,69.019608%);fill-opacity:1;" d="M 192 17.453125 L 192 145.453125 L 209.453125 145.453125 L 209.453125 82.589844 C 219.886719 76.554688 226.910156 65.285156 226.910156 52.363281 C 226.910156 33.082031 211.277344 17.453125 192 17.453125 Z M 192 17.453125 "/>
<path style=" stroke:none;fill-rule:nonzero;fill:rgb(57.647059%,78.039216%,93.72549%);fill-opacity:1;" d="M 0 180.363281 L 186.179688 180.363281 L 186.179688 273.453125 L 0 273.453125 Z M 0 180.363281 "/>
<path style=" stroke:none;fill-rule:nonzero;fill:rgb(35.294118%,54.509804%,69.019608%);fill-opacity:1;" d="M 197.820312 180.363281 L 384 180.363281 L 384 273.453125 L 197.820312 273.453125 Z M 197.820312 180.363281 "/>
<path style=" stroke:none;fill-rule:nonzero;fill:rgb(57.647059%,78.039216%,93.72549%);fill-opacity:1;" d="M 139.636719 273.453125 L 244.363281 273.453125 L 244.363281 366.546875 L 139.636719 366.546875 Z M 139.636719 273.453125 "/>
<path style=" stroke:none;fill-rule:nonzero;fill:rgb(35.294118%,54.509804%,69.019608%);fill-opacity:1;" d="M 192 273.453125 L 244.363281 273.453125 L 244.363281 366.546875 L 192 366.546875 Z M 192 273.453125 "/>
<path style=" stroke:none;fill-rule:nonzero;fill:rgb(80%,91.372549%,97.647059%);fill-opacity:1;" d="M 34.910156 122.183594 L 349.089844 122.183594 L 349.089844 331.636719 L 34.910156 331.636719 Z M 34.910156 122.183594 "/>
<path style=" stroke:none;fill-rule:nonzero;fill:rgb(57.647059%,78.039216%,93.72549%);fill-opacity:1;" d="M 192 122.183594 L 349.089844 122.183594 L 349.089844 331.636719 L 192 331.636719 Z M 192 122.183594 "/>
<path style=" stroke:none;fill-rule:nonzero;fill:rgb(23.529412%,36.470588%,46.27451%);fill-opacity:1;" d="M 145.453125 203.636719 C 145.453125 216.488281 135.035156 226.910156 122.183594 226.910156 C 109.328125 226.910156 98.910156 216.488281 98.910156 203.636719 C 98.910156 190.78125 109.328125 180.363281 122.183594 180.363281 C 135.035156 180.363281 145.453125 190.78125 145.453125 203.636719 Z M 145.453125 203.636719 "/>
<path style=" stroke:none;fill-rule:nonzero;fill:rgb(11.764706%,18.039216%,23.137255%);fill-opacity:1;" d="M 285.089844 203.636719 C 285.089844 216.488281 274.671875 226.910156 261.816406 226.910156 C 248.964844 226.910156 238.546875 216.488281 238.546875 203.636719 C 238.546875 190.78125 248.964844 180.363281 261.816406 180.363281 C 274.671875 180.363281 285.089844 190.78125 285.089844 203.636719 Z M 285.089844 203.636719 "/>
<path style=" stroke:none;fill-rule:nonzero;fill:rgb(23.529412%,36.470588%,46.27451%);fill-opacity:1;" d="M 139.636719 261.816406 C 139.636719 290.738281 163.078125 314.183594 192 314.183594 C 220.917969 314.183594 244.363281 290.738281 244.363281 261.816406 Z M 139.636719 261.816406 "/>
<path style=" stroke:none;fill-rule:nonzero;fill:rgb(11.764706%,18.039216%,23.137255%);fill-opacity:1;" d="M 192 261.816406 C 192 290.738281 192 296.726562 192 314.183594 C 220.917969 314.183594 244.363281 290.738281 244.363281 261.816406 Z M 192 261.816406 "/>
</g>
</svg>
