<svg id="Cliengo-Chatbot" xmlns="http://www.w3.org/2000/svg" xmlns:xlink="http://www.w3.org/1999/xlink" viewBox="0 0 270.58 232.12"><defs><style>.cls-1,.cls-10{fill:none;}.cls-2,.cls-5{fill:#fff;}.cls-3{fill:#e6e6e6;}.cls-4{fill:#9378f8;}.cls-5{stroke:#515151;stroke-width:2px;}.cls-10,.cls-5{stroke-linecap:round;stroke-linejoin:round;}.cls-6{fill:#a8edde;}.cls-7{fill:#66d0c2;}.cls-8{clip-path:url(#clip-path);}.cls-9{fill:#515151;}.cls-10{stroke:#606060;stroke-width:0.5px;}</style><clipPath id="clip-path" transform="translate(-5.12 -18.25)"><rect class="cls-1" x="27.88" y="66.43" width="28.79" height="29.19" rx="14.39"/></clipPath></defs><path class="cls-2" d="M239.12,198.31a3.05,3.05,0,0,1,0,.36,3.5,3.5,0,0,1-6.95.06c0-.14,0-.42,0-.42Z" transform="translate(-5.12 -18.25)"/><path class="cls-2" d="M239.12,198.31a3.05,3.05,0,0,1,0,.36,3.5,3.5,0,0,1-6.95.06c0-.14,0-.42,0-.42Z" transform="translate(-5.12 -18.25)"/><ellipse class="cls-3" cx="134.19" cy="225.97" rx="134.19" ry="6.15"/><rect class="cls-4" x="222.28" y="205.3" width="16.34" height="19.19" rx="8.17"/><rect class="cls-5" x="216.28" y="183.09" width="28.34" height="33.29" rx="13.61"/><path class="cls-5" d="M254.15,212.75H220.61l-12,7.85a1.45,1.45,0,0,1-2.24-1.2l-.13-9.83-.52-.35a20.54,20.54,0,0,1-9.09-17h0a20.61,20.61,0,0,1,20.55-20.55h37a20.61,20.61,0,0,1,20.55,20.55h0A20.62,20.62,0,0,1,254.15,212.75Z" transform="translate(-5.12 -18.25)"/><line class="cls-5" x1="243.15" y1="144" x2="243.15" y2="153.39"/><line class="cls-5" x1="217.9" y1="144" x2="217.9" y2="153.39"/><circle class="cls-5" cx="217.82" cy="144" r="4.11"/><circle class="cls-5" cx="243.15" cy="144" r="4.11"/><rect class="cls-4" x="199.07" y="158.09" width="62.83" height="31.12" rx="15.56"/><circle class="cls-2" cx="215.78" cy="172.36" r="4.7"/><circle class="cls-2" cx="245.2" cy="172.36" r="4.7"/><path class="cls-2" d="M240.12,197.81s0,.31,0,.46a4.5,4.5,0,0,1-8.95.08c0-.18,0-.54,0-.54Z" transform="translate(-5.12 -18.25)"/><circle class="cls-6" cx="232.58" cy="198.58" r="1.07"/><circle class="cls-6" cx="236.18" cy="198.58" r="1.07"/><circle class="cls-6" cx="239.78" cy="198.58" r="1.07"/><rect class="cls-7" x="13" y="41.56" width="104.44" height="44.93" rx="2.06"/><rect class="cls-2" x="59.37" y="52.34" width="28.14" height="5.47"/><rect class="cls-2" x="59.37" y="65.09" width="43.54" height="5.47"/><rect class="cls-3" x="22.75" y="48.19" width="28.79" height="29.19" rx="14.39"/><g class="cls-8"><path class="cls-2" d="M28.17,95.81h28.2c-.06-.25-.12-.49-.17-.73a16.47,16.47,0,0,0-2.79-5.7L48.13,86l-2.43-1.2h0c-.27-.79-.59-1.87-.83-2.7a5.19,5.19,0,0,0,.81-.58,5.13,5.13,0,0,0,.48-7.25,2.76,2.76,0,0,1,1.2,1.93,17.76,17.76,0,0,0,.07-3.13c-.14-1.26-1.94-2.51-5.14-3.34s-4.87,2.78-4.87,2.78c-2.23,1.11-.91,7-.21,6.47L37.3,79a5.15,5.15,0,0,0,1.52,2.54,13.62,13.62,0,0,1-.55,2.61h0l-7.94,5.56S29.11,93,28.17,95.81Z" transform="translate(-5.12 -18.25)"/></g><path class="cls-9" d="M192.92,71.47h-1.23V37.76a19.5,19.5,0,0,0-19.51-19.51H100.77A19.5,19.5,0,0,0,81.26,37.76h0V222.69a19.51,19.51,0,0,0,19.51,19.51h71.41a19.51,19.51,0,0,0,19.51-19.51h0V95.46h1.23Z" transform="translate(-5.12 -18.25)"/><path class="cls-2" d="M173,23.32h-9.32a6.94,6.94,0,0,1-3.8,9,7.05,7.05,0,0,1-2.61.51H116.33a6.91,6.91,0,0,1-6.41-9.54h-8.71A14.57,14.57,0,0,0,86.64,37.89h0V222.55a14.57,14.57,0,0,0,14.57,14.57H173a14.57,14.57,0,0,0,14.57-14.57h0V37.89A14.57,14.57,0,0,0,173,23.32Z" transform="translate(-5.12 -18.25)"/><rect class="cls-4" x="86.94" y="43.02" width="18.9" height="18.9" rx="9.45"/><path class="cls-3" d="M113,68H172.3c3.59,0,7.12,0,7.12,4.73V90.33c0,4.75-3.93,6.16-7.53,6.16H127.14c-3.6,0-7.53-.82-7.53-5.56v-19Z" transform="translate(-5.12 -18.25)"/><rect class="cls-4" x="122.81" y="54.68" width="25.44" height="2.36"/><rect class="cls-2" x="122.81" y="62.85" width="44.33" height="2.36"/><rect class="cls-2" x="122.81" y="71.02" width="44.29" height="2.36"/><rect class="cls-4" x="86.94" y="133.02" width="18.9" height="18.9" rx="9.45"/><path class="cls-3" d="M113,158H172.3c3.59,0,7.12,0,7.12,4.73V183c0,4.75-3.93,6.16-7.53,6.16H127.14c-3.6,0-7.53-.82-7.53-5.56V161.9Z" transform="translate(-5.12 -18.25)"/><rect class="cls-4" x="122.81" y="144.68" width="25.44" height="2.36"/><rect class="cls-2" x="122.81" y="152.85" width="44.33" height="2.36"/><rect class="cls-2" x="122.81" y="161.02" width="44.29" height="2.36"/><rect class="cls-7" x="155.4" y="88.02" width="18.9" height="18.9" rx="9.45"/><path class="cls-3" d="M158.51,113H99.18c-3.59,0-7.12,0-7.12,4.73V138c0,4.75,3.94,6.16,7.53,6.16h44.75c3.6,0,7.53-.82,7.53-5.56V116.9Z" transform="translate(-5.12 -18.25)"/><rect class="cls-4" x="112.99" y="99.68" width="25.44" height="2.36"/><rect class="cls-2" x="94.1" y="107.85" width="44.33" height="2.36"/><rect class="cls-2" x="94.14" y="116.02" width="44.29" height="2.36"/><path class="cls-3" d="M82,227.82c2.83-7.69,5.33-15.64,4.78-18.38a35.44,35.44,0,0,1-3,32.49c-.13.27-.27.54-.42.8H71.07c0-.25,0-.52,0-.8-.12-5.32-8.15-15.14-8.83-25.53-.92-14.07,5.2-29,2.41-32.91C65.55,184.69,80.3,204.16,82,227.82Z" transform="translate(-5.12 -18.25)"/><path class="cls-10" d="M77.8,242.35s-3.57-34.26-12-55.7" transform="translate(-5.12 -18.25)"/><path class="cls-10" d="M77.8,242.35s10.3-12.4,9.46-29.64" transform="translate(-5.12 -18.25)"/></svg>