<svg id="Cliengo-CRM" xmlns="http://www.w3.org/2000/svg" xmlns:xlink="http://www.w3.org/1999/xlink" viewBox="0 0 408 211.84"><defs><style>.cls-1,.cls-10{fill:none;}.cls-2{fill:#e6e6e6;}.cls-3{fill:#fff;}.cls-4{fill:#e1fff6;}.cls-5{fill:#66d0c2;}.cls-6{fill:#515151;}.cls-7{fill:#9378f8;}.cls-8{fill:#bca8fd;}.cls-9{clip-path:url(#clip-path);}.cls-10{stroke:#515151;stroke-linecap:round;stroke-linejoin:round;stroke-width:2px;}</style><clipPath id="clip-path" transform="translate(-4.76 -34.29)"><rect class="cls-1" x="68" y="103.69" width="197.11" height="126.94"/></clipPath></defs><path class="cls-2" d="M35.61,209.43a11.24,11.24,0,0,1-4.18,5.65,9.65,9.65,0,0,1,3.42-12.64A11.26,11.26,0,0,1,35.61,209.43Z" transform="translate(-4.76 -34.29)"/><path class="cls-2" d="M28.27,227.69a11.2,11.2,0,0,1,1.05,7,11.22,11.22,0,0,1-5.48-4.41,11.17,11.17,0,0,1-1.05-7A11.24,11.24,0,0,1,28.27,227.69Z" transform="translate(-4.76 -34.29)"/><path class="cls-2" d="M26.4,187.07a11.21,11.21,0,0,1,1,7,11.17,11.17,0,0,1-5.48-4.4,11.24,11.24,0,0,1-1-7A11.22,11.22,0,0,1,26.4,187.07Z" transform="translate(-4.76 -34.29)"/><path class="cls-2" d="M29.3,235l-.1-.4.05.2-.05-.2a4.66,4.66,0,0,0,2.55-2.35c1.43-2.6,2.32-8.08-1.56-19.47-3.56-10.48-3.14-18.57-2.17-23.52a24.51,24.51,0,0,1,3-8.33l.35.24a24.15,24.15,0,0,0-3,8.2c-1,4.89-1.37,12.9,2.16,23.28,3.93,11.55,3,17.16,1.51,19.82A4.85,4.85,0,0,1,29.3,235Z" transform="translate(-4.76 -34.29)"/><circle class="cls-2" cx="26.46" cy="146.72" r="5.21"/><ellipse class="cls-2" cx="176.5" cy="204.72" rx="176.5" ry="6.15"/><ellipse class="cls-2" cx="204" cy="204.72" rx="204" ry="7.11"/><rect class="cls-3" x="17.96" width="114.04" height="80.78" rx="4.56"/><rect class="cls-4" x="17.96" width="114.04" height="80.78" rx="4.56"/><path class="cls-3" d="M26.1,103.16h0a.64.64,0,0,1,.11-.89l23.6-18.64,22.08,6.86L95.55,67.87l18.66,2.71,16-18.38a.62.62,0,0,1,.88-.07h0a.63.63,0,0,1,.06.89l-16.41,18.9L96,69.2,72.22,91.92,50.06,85,27,103.26A.64.64,0,0,1,26.1,103.16Z" transform="translate(-4.76 -34.29)"/><path class="cls-5" d="M75.38,90.78a3.36,3.36,0,1,1-3.75-2.9h0A3.36,3.36,0,0,1,75.38,90.78Z" transform="translate(-4.76 -34.29)"/><path class="cls-5" d="M53.2,84.21a3.36,3.36,0,1,1-3.75-2.92A3.36,3.36,0,0,1,53.2,84.21Z" transform="translate(-4.76 -34.29)"/><path class="cls-5" d="M99.06,68.32a3.35,3.35,0,1,1-3.75-2.9h0a3.35,3.35,0,0,1,3.75,2.89Z" transform="translate(-4.76 -34.29)"/><path class="cls-5" d="M117.61,70.71a3.35,3.35,0,1,1-3.74-2.91A3.36,3.36,0,0,1,117.61,70.71Z" transform="translate(-4.76 -34.29)"/><path class="cls-6" d="M267.26,92.54h-77.8V90.61H147.14v1.93H65.85a6.31,6.31,0,0,0-6.32,6.31h0V226.63a6.31,6.31,0,0,0,6.32,6.31H267.26a6.31,6.31,0,0,0,6.32-6.31h0V98.85a6.31,6.31,0,0,0-6.32-6.31Z" transform="translate(-4.76 -34.29)"/><rect class="cls-3" x="63.24" y="69.4" width="197.11" height="126.94"/><rect class="cls-2" x="185" y="85.22" width="63" height="99.1"/><rect class="cls-7" x="195.98" y="158.23" width="3.08" height="17.08"/><rect class="cls-3" x="201.34" y="161.03" width="3.08" height="14.29"/><rect class="cls-3" x="206.59" y="163.58" width="3.08" height="11.74"/><rect class="cls-8" x="211.95" y="161.03" width="3.08" height="14.29"/><rect class="cls-3" x="217.21" y="166.77" width="3.08" height="8.54"/><rect class="cls-3" x="222.57" y="161.03" width="3.08" height="14.29"/><rect class="cls-3" x="227.82" y="165.32" width="3.08" height="10"/><rect class="cls-3" x="233.18" y="163.39" width="3.08" height="11.92"/><rect class="cls-7" x="195.72" y="138.06" width="26.28" height="1.87"/><rect class="cls-3" x="195.72" y="143.24" width="40.8" height="1.87"/><rect class="cls-3" x="195.72" y="148.43" width="40.8" height="1.87"/><path class="cls-8" d="M220.91,124.67a20.85,20.85,0,1,0-.12,41.69V159.1h-.09a13.79,13.79,0,1,1,13.8-13.79h0a11.81,11.81,0,0,1-.16,2h7.33a14.93,14.93,0,0,0,.09-1.76,20.84,20.84,0,0,0-20.83-20.85Z" transform="translate(-4.76 -34.29)"/><path class="cls-3" d="M241.67,147.28a20.8,20.8,0,0,1-20.75,19.08h-.12V159.1a13.77,13.77,0,0,0,13.55-11.82Z" transform="translate(-4.76 -34.29)"/><rect class="cls-2" x="76" y="85.22" width="99" height="52.1"/><rect class="cls-3" x="103.67" y="94.06" width="39.18" height="2.27"/><rect class="cls-7" x="103.64" y="102.39" width="60.63" height="2.27"/><rect class="cls-3" x="103.64" y="110.25" width="47.58" height="2.27"/><rect class="cls-3" x="103.64" y="118.1" width="27.99" height="2.27"/><rect class="cls-3" x="103.64" y="125.96" width="41.98" height="2.27"/><rect class="cls-3" x="85.91" y="93.4" width="4.48" height="4.54"/><rect class="cls-7" x="85.91" y="101.26" width="4.48" height="4.54"/><rect class="cls-3" x="85.91" y="109.11" width="4.48" height="4.54"/><rect class="cls-3" x="85.91" y="116.97" width="4.48" height="4.54"/><rect class="cls-3" x="85.91" y="124.82" width="4.48" height="4.54"/><rect class="cls-2" x="76" y="162.22" width="99" height="22.1"/><rect class="cls-3" x="91.67" y="168.06" width="35.13" height="2.27"/><rect class="cls-7" x="91.64" y="175.39" width="54.36" height="2.27"/><rect class="cls-3" x="80.91" y="167.4" width="4.48" height="4.54"/><rect class="cls-7" x="80.91" y="174.26" width="4.48" height="4.54"/><circle id="f17c58cd-37a1-42e1-9e5f-26c2ec8825b4" class="cls-7" cx="161.67" cy="173.62" r="5.3"/><path class="cls-3" d="M164.29,208a.31.31,0,0,0,.45,0h0l1.37-1.36V210a.32.32,0,0,0,.63,0h0v-3.36l1.37,1.36a.31.31,0,0,0,.45,0,.33.33,0,0,0,0-.45h0l-1.91-1.91a.33.33,0,0,0-.45,0l-1.91,1.91A.33.33,0,0,0,164.29,208Z" transform="translate(-4.76 -34.29)"/><path id="b1a491a7-739b-4f1f-bff8-dbf70f6892c8" class="cls-2" d="M81.25,177a.41.41,0,0,0-.4.41V191.2a.4.4,0,0,0,.4.4h47a.4.4,0,0,0,.4-.4V177.43a.41.41,0,0,0-.4-.41Z" transform="translate(-4.76 -34.29)"/><path id="acd48b1a-d10a-4276-b388-f016adebff0c" class="cls-3" d="M81.86,190.59H127.6V178H81.86Z" transform="translate(-4.76 -34.29)"/><path id="bed21912-b6c9-41df-a59b-963435bac71a" class="cls-7" d="M121.83,188a.67.67,0,0,0-.67.67.66.66,0,0,0,.67.66h2.67a.66.66,0,0,0,.67-.66.67.67,0,0,0-.67-.67Z" transform="translate(-4.76 -34.29)"/><rect id="a26455fb-834b-4368-afb2-80d86a75d46a" class="cls-2" x="89.53" y="152.4" width="30.88" height="0.18"/><circle id="f17c58cd-37a1-42e1-9e5f-26c2ec8825b4-2" data-name="f17c58cd-37a1-42e1-9e5f-26c2ec8825b4" class="cls-7" cx="83.07" cy="150.02" r="3.9"/><path id="b803193f-4714-40c6-8606-08b9dea6d22d" class="cls-2" d="M94.34,185.71l-.1-.15,3.21-2.14,2.2,1.06,3.16-2,6.3,2.69,5-2.46,4.86,2,6.12-2.46.12.14-6.2,2.53-4.9-2-5,2.46-6.29-2.68-3.17,2-2.2-1.06Z" transform="translate(-4.76 -34.29)"/><path id="b19b31b4-3a52-4fc9-8ed4-dc6729deb0ed" class="cls-2" d="M94.86,188.08a.57.57,0,0,0,0,1.14h6a.57.57,0,0,0,0-1.14h-6Z" transform="translate(-4.76 -34.29)"/><path class="cls-3" d="M86.27,184.36a.24.24,0,0,0,.33,0h0l1-1v2.47a.23.23,0,0,0,.23.24.24.24,0,0,0,.24-.24h0v-2.47l1,1a.23.23,0,0,0,.33-.33h0l-1.4-1.4a.24.24,0,0,0-.33,0l-1.4,1.4A.22.22,0,0,0,86.27,184.36Z" transform="translate(-4.76 -34.29)"/><path id="b1a491a7-739b-4f1f-bff8-dbf70f6892c8-2" data-name="b1a491a7-739b-4f1f-bff8-dbf70f6892c8" class="cls-2" d="M132.4,177a.41.41,0,0,0-.41.41V191.2a.4.4,0,0,0,.41.4h47a.4.4,0,0,0,.4-.4V177.43a.41.41,0,0,0-.4-.41Z" transform="translate(-4.76 -34.29)"/><path id="acd48b1a-d10a-4276-b388-f016adebff0c-2" data-name="acd48b1a-d10a-4276-b388-f016adebff0c" class="cls-3" d="M133,190.59h45.75V178H133Z" transform="translate(-4.76 -34.29)"/><path id="bed21912-b6c9-41df-a59b-963435bac71a-2" data-name="bed21912-b6c9-41df-a59b-963435bac71a" class="cls-7" d="M173,188a.67.67,0,0,0-.67.67.66.66,0,0,0,.67.66h2.68a.66.66,0,0,0,.67-.66.67.67,0,0,0-.67-.67Z" transform="translate(-4.76 -34.29)"/><rect id="a26455fb-834b-4368-afb2-80d86a75d46a-2" data-name="a26455fb-834b-4368-afb2-80d86a75d46a" class="cls-2" x="140.67" y="152.4" width="30.88" height="0.18"/><circle id="f17c58cd-37a1-42e1-9e5f-26c2ec8825b4-3" data-name="f17c58cd-37a1-42e1-9e5f-26c2ec8825b4" class="cls-2" cx="134.22" cy="150.02" r="3.9"/><path id="b803193f-4714-40c6-8606-08b9dea6d22d-2" data-name="b803193f-4714-40c6-8606-08b9dea6d22d" class="cls-2" d="M145.48,185.71l-.1-.15,3.21-2.14,2.2,1.06,3.17,0,6.3-.31,5-1.46,4.87,0,6.12,1.54.5.41-6.58-1.74h-4.9l-5,1.46-6.28.32-3.17,0-2.2-1.06Z" transform="translate(-4.76 -34.29)"/><path id="b19b31b4-3a52-4fc9-8ed4-dc6729deb0ed-2" data-name="b19b31b4-3a52-4fc9-8ed4-dc6729deb0ed" class="cls-2" d="M146,188.08a.57.57,0,1,0,0,1.14h6a.57.57,0,0,0,0-1.14h-6Z" transform="translate(-4.76 -34.29)"/><path class="cls-3" d="M140.54,184.27a.22.22,0,0,0-.33,0h0l-1,1V182.8a.24.24,0,0,0-.47,0h0v2.47l-1-1a.23.23,0,0,0-.33,0,.24.24,0,0,0,0,.33h0l1.4,1.4a.24.24,0,0,0,.33,0l1.4-1.4A.22.22,0,0,0,140.54,184.27Z" transform="translate(-4.76 -34.29)"/><g class="cls-9"><rect class="cls-7" x="63" y="69.32" width="198" height="8.48"/></g><ellipse class="cls-3" cx="69.22" cy="73.66" rx="1.68" ry="1.7"/><ellipse class="cls-3" cx="75.1" cy="73.66" rx="1.68" ry="1.7"/><ellipse class="cls-3" cx="80.99" cy="73.66" rx="1.68" ry="1.7"/><path class="cls-6" d="M284.7,230.49h-3.45a7.53,7.53,0,0,0-1.35-.13H260.58v-1.58a.31.31,0,0,0-.31-.31h-7.53a.31.31,0,0,0-.32.31v1.58h-4.7v-1.58a.31.31,0,0,0-.32-.31h-7.53a.31.31,0,0,0-.31.31v1.58h-4.71v-1.58a.31.31,0,0,0-.31-.31H227a.31.31,0,0,0-.31.31v1.58H222v-1.58a.31.31,0,0,0-.31-.31h-7.53a.31.31,0,0,0-.32.31v1.58h-4.7v-1.58a.31.31,0,0,0-.32-.31h-7.53a.31.31,0,0,0-.31.31v1.58h-4.71v-1.58a.31.31,0,0,0-.31-.31H137a.31.31,0,0,0-.32.31v1.58H132v-1.58a.31.31,0,0,0-.32-.31H124.1a.31.31,0,0,0-.31.31v1.58h-4.71v-1.58a.31.31,0,0,0-.31-.31h-7.53a.31.31,0,0,0-.31.31v1.58h-4.71v-1.58a.31.31,0,0,0-.31-.31H98.38a.31.31,0,0,0-.32.31v1.58h-4.7v-1.58a.31.31,0,0,0-.32-.31H85.51a.31.31,0,0,0-.31.31v1.58H80.49v-1.58a.31.31,0,0,0-.31-.31H72.65a.31.31,0,0,0-.31.31v1.58H57.45a7.56,7.56,0,0,0-1.36.13H52.82a2.73,2.73,0,0,0-2.72,2.72v1.07A2.73,2.73,0,0,0,52.82,237H284.7a2.73,2.73,0,0,0,2.72-2.71v-1.07A2.73,2.73,0,0,0,284.7,230.49Z" transform="translate(-4.76 -34.29)"/><path class="cls-10" d="M370.22,161.25a40.2,40.2,0,0,1,21,43.17" transform="translate(-4.76 -34.29)"/><path class="cls-10" d="M372.32,231.45a40.2,40.2,0,0,1-47.89-5.07" transform="translate(-4.76 -34.29)"/><path class="cls-10" d="M311.59,197.22A40.17,40.17,0,0,1,339,158.83" transform="translate(-4.76 -34.29)"/><circle class="cls-10" cx="347.01" cy="163.1" r="18.66"/><circle class="cls-2" cx="347.01" cy="163.1" r="14.04"/><path class="cls-7" d="M351.76,186.75a5.73,5.73,0,1,1-5.72,5.73h0A5.75,5.75,0,0,1,351.76,186.75Z" transform="translate(-4.76 -34.29)"/><path class="cls-7" d="M351.76,211.48a13.89,13.89,0,0,1-11.45-6.11c.1-3.81,7.64-5.91,11.45-5.91s11.36,2.1,11.45,5.91A13.9,13.9,0,0,1,351.76,211.48Z" transform="translate(-4.76 -34.29)"/><circle class="cls-10" cx="347" cy="123.04" r="12.73"/><path class="cls-2" d="M347.89,164h-2.81a.46.46,0,0,1-.46-.46v-4a.46.46,0,0,1,.46-.46h2.81a.47.47,0,0,1,.47.46v4A.47.47,0,0,1,347.89,164Z" transform="translate(-4.76 -34.29)"/><path class="cls-2" d="M353,164h-2.54a.59.59,0,0,1-.6-.59v-8.17a.6.6,0,0,1,.6-.6H353a.6.6,0,0,1,.6.6v8.17A.59.59,0,0,1,353,164Z" transform="translate(-4.76 -34.29)"/><path class="cls-7" d="M358.2,164h-2.34a.7.7,0,0,1-.7-.69v-12a.7.7,0,0,1,.7-.7h2.34a.7.7,0,0,1,.7.7v12A.69.69,0,0,1,358.2,164Z" transform="translate(-4.76 -34.29)"/><circle class="cls-10" cx="382.64" cy="182.45" r="12.73"/><path class="cls-7" d="M389.28,214.19h-9.6a.49.49,0,0,0-.48.49v5.53a.49.49,0,0,0,.48.48h1V222a.2.2,0,0,0,.34.13l1.26-1.41h7a.49.49,0,0,0,.49-.48v-5.53A.49.49,0,0,0,389.28,214.19Z" transform="translate(-4.76 -34.29)"/><path class="cls-2" d="M395.64,210h-9.87a.5.5,0,0,0-.5.5v3H390a.5.5,0,0,1,.5.5v2.65H393l1.3,1.45a.2.2,0,0,0,.35-.14v-1.31h1a.49.49,0,0,0,.49-.5v-5.68A.49.49,0,0,0,395.64,210Z" transform="translate(-4.76 -34.29)"/><circle class="cls-10" cx="311.36" cy="182.45" r="12.73"/><rect class="cls-7" x="307.05" y="175.16" width="8.62" height="11.59"/><rect class="cls-2" x="305.56" y="174.81" width="11.59" height="4.07"/><rect class="cls-2" x="305.56" y="180.17" width="11.59" height="4.14"/><rect class="cls-2" x="305.56" y="185.59" width="11.59" height="4.07"/><circle class="cls-7" cx="314.9" cy="176.11" r="0.4"/><circle class="cls-7" cx="314.9" cy="181.47" r="0.4"/><circle class="cls-7" cx="314.9" cy="186.89" r="0.4"/></svg>