<svg id="Cliengo-Livechat" xmlns="http://www.w3.org/2000/svg" xmlns:xlink="http://www.w3.org/1999/xlink" viewBox="0 0 301.18 232.12"><defs><style>.cls-1,.cls-12,.cls-15,.cls-7{fill:none;}.cls-2{fill:#e6e6e6;}.cls-3{fill:#e1fff6;}.cls-4,.cls-6,.cls-8{fill:#fff;}.cls-5{fill:#66d0c2;}.cls-6{opacity:0.33;isolation:isolate;}.cls-7{stroke:#fff;}.cls-15,.cls-7,.cls-8{stroke-linecap:round;}.cls-12,.cls-15,.cls-7{stroke-miterlimit:10;}.cls-8{stroke:#515151;stroke-linejoin:round;stroke-width:2px;}.cls-9{fill:#a8edde;}.cls-10{fill:#9378f8;}.cls-11{fill:#515151;}.cls-12{stroke:#9378f8;}.cls-13{clip-path:url(#clip-path);}.cls-14{fill:#f2f2f2;}.cls-15{stroke:#3f3d56;stroke-width:0.25px;}</style><clipPath id="clip-path" transform="translate(-4.32 -17.84)"><rect class="cls-1" x="158.45" y="179.01" width="18.9" height="18.9" rx="9.45"/></clipPath></defs><ellipse class="cls-2" cx="156.22" cy="225.97" rx="131.19" ry="6.15"/><path class="cls-3" d="M214.09,75.2V200.48a7.93,7.93,0,0,1-7.92,7.92H36a4.06,4.06,0,0,1-4.06-4.06V73.68A4.06,4.06,0,0,1,36,69.62H212.37a1.72,1.72,0,0,1,1.72,1.72Z" transform="translate(-4.32 -17.84)"/><rect class="cls-4" x="56.93" y="67.25" width="146.54" height="54.45"/><rect class="cls-4" x="56.93" y="126.92" width="146.54" height="54.45"/><path class="cls-2" d="M56.51,75.4v133H36a4,4,0,0,1-4-4V75.4Z" transform="translate(-4.32 -17.84)"/><path class="cls-5" d="M214.09,70.24v5.32H31.93v-4.1A4.06,4.06,0,0,1,36,67.4H212.37a1.72,1.72,0,0,1,1.72,1.72Z" transform="translate(-4.32 -17.84)"/><circle class="cls-4" cx="36.09" cy="53.61" r="1.81"/><circle class="cls-4" cx="42.29" cy="53.61" r="1.81"/><circle class="cls-4" cx="48.5" cy="53.61" r="1.81"/><rect class="cls-4" x="35.56" y="91.14" width="12.83" height="1.27"/><rect class="cls-4" x="32.58" y="87.39" width="15.81" height="1.61"/><rect class="cls-4" x="35.56" y="106.16" width="12.83" height="1.27"/><rect class="cls-4" x="32.58" y="102.4" width="15.81" height="1.61"/><rect class="cls-4" x="35.56" y="121.17" width="12.83" height="1.27"/><rect class="cls-4" x="32.58" y="117.42" width="15.81" height="1.61"/><rect class="cls-4" x="35.56" y="136.18" width="12.83" height="1.27"/><rect class="cls-4" x="32.58" y="132.43" width="15.81" height="1.61"/><path class="cls-5" d="M122.85,156.8v24.88a6.72,6.72,0,0,1-6.4,6.71,1.71,1.71,0,0,1-.32,0H11a6.72,6.72,0,0,1-6.45-4.85,6.84,6.84,0,0,1-.25-1.86V156.8a6.73,6.73,0,0,1,6.7-6.73H116.13a6.72,6.72,0,0,1,6.72,6.72Z" transform="translate(-4.32 -17.84)"/><path class="cls-6" d="M122.85,159.31v22.37a6.72,6.72,0,0,1-6.4,6.71,1.71,1.71,0,0,1-.32,0H11a6.72,6.72,0,0,1-6.45-4.85,6.84,6.84,0,0,1-.25-1.86V159.31Z" transform="translate(-4.32 -17.84)"/><line class="cls-7" x1="4.13" y1="136.1" x2="6.96" y2="138.93"/><line class="cls-7" x1="7.13" y1="136.1" x2="4.3" y2="138.93"/><rect class="cls-4" x="11.04" y="149.94" width="66" height="3"/><rect class="cls-4" x="11.04" y="157.39" width="66" height="3"/><path class="cls-8" d="M285.9,233.46H255.54l-10.88,7.11a1.32,1.32,0,0,1-2-1.08l-.12-8.9-.47-.31a18.62,18.62,0,0,1-8.22-15.42h0a18.65,18.65,0,0,1,18.6-18.6H285.9a18.65,18.65,0,0,1,18.6,18.6h0A18.65,18.65,0,0,1,285.9,233.46Z" transform="translate(-4.32 -17.84)"/><rect class="cls-9" x="239.34" y="188.09" width="39.91" height="5.7" rx="2.85"/><rect class="cls-9" x="239.34" y="198.68" width="51.31" height="5.7" rx="2.85"/><path class="cls-8" d="M219.84,200.88h30.35L261.08,208a1.32,1.32,0,0,0,2-1.08l.12-8.9.47-.31a18.62,18.62,0,0,0,8.22-15.42h0a18.65,18.65,0,0,0-18.6-18.6H219.84a18.65,18.65,0,0,0-18.6,18.6h0A18.65,18.65,0,0,0,219.84,200.88Z" transform="translate(-4.32 -17.84)"/><rect class="cls-10" x="206.57" y="155.61" width="51.31" height="5.7" rx="2.85"/><rect class="cls-10" x="206.57" y="166.2" width="35.02" height="5.7" rx="2.85"/><path class="cls-11" d="M191.16,71.06h-1.23V37.35a19.51,19.51,0,0,0-19.51-19.51H99A19.51,19.51,0,0,0,79.5,37.35h0V222.28A19.5,19.5,0,0,0,99,241.79h71.41a19.5,19.5,0,0,0,19.51-19.51h0V95.05h1.23Z" transform="translate(-4.32 -17.84)"/><path class="cls-4" d="M171.21,22.92h-9.32a6.92,6.92,0,0,1-6.41,9.53H114.56a6.9,6.9,0,0,1-6.4-9.53H99.45A14.57,14.57,0,0,0,84.88,37.49h0V222.14a14.57,14.57,0,0,0,14.57,14.57h71.76a14.57,14.57,0,0,0,14.57-14.57h0V37.49A14.57,14.57,0,0,0,171.21,22.92Z" transform="translate(-4.32 -17.84)"/><rect class="cls-10" x="85.98" y="27.02" width="18.9" height="18.9" rx="9.45"/><path class="cls-2" d="M111.21,51.62h59.33c3.59,0,7.12,0,7.12,4.72V73.93c0,4.75-3.93,6.15-7.53,6.15H125.38c-3.6,0-7.53-.81-7.53-5.56v-19Z" transform="translate(-4.32 -17.84)"/><rect class="cls-10" x="121.85" y="38.68" width="25.44" height="2.36"/><rect class="cls-4" x="121.85" y="46.85" width="44.33" height="2.36"/><rect class="cls-4" x="121.85" y="55.02" width="44.29" height="2.36"/><rect class="cls-10" x="85.98" y="117.02" width="18.9" height="18.9" rx="9.45"/><path class="cls-2" d="M111.21,141.62h59.33c3.59,0,7.12,0,7.12,4.72v20.29c0,4.75-3.93,6.15-7.53,6.15H125.38c-3.6,0-7.53-.81-7.53-5.56V145.49Z" transform="translate(-4.32 -17.84)"/><rect class="cls-10" x="121.85" y="128.68" width="25.44" height="2.36"/><rect class="cls-4" x="121.85" y="136.85" width="44.33" height="2.36"/><rect class="cls-4" x="121.85" y="145.02" width="44.29" height="2.36"/><rect class="cls-5" x="154.44" y="72.02" width="18.9" height="18.9" rx="9.45"/><path class="cls-2" d="M156.75,96.62H97.42c-3.59,0-7.12,0-7.12,4.72v20.29c0,4.75,3.93,6.15,7.53,6.15h44.75c3.6,0,7.53-.81,7.53-5.56V100.49Z" transform="translate(-4.32 -17.84)"/><rect class="cls-10" x="112.03" y="83.68" width="25.44" height="2.36"/><rect class="cls-4" x="93.13" y="91.85" width="44.33" height="2.36"/><rect class="cls-4" x="93.18" y="100.02" width="44.29" height="2.36"/><rect class="cls-10" x="154.12" y="161.17" width="18.9" height="18.9" rx="9.45"/><path class="cls-12" d="M154.7,186.78a.54.54,0,0,0-.27-1H97.11c-3.6,0-7.12,0-7.12,4.73v20.28c0,4.75,3.93,6.15,7.53,6.15h44.75c3.59,0,7.52-.81,7.52-5.56V189.64Z" transform="translate(-4.32 -17.84)"/><rect class="cls-10" x="111.72" y="172.84" width="25.44" height="2.36"/><rect class="cls-2" x="92.82" y="181.01" width="44.33" height="2.36"/><rect class="cls-2" x="92.86" y="189.18" width="44.29" height="2.36"/><g class="cls-13"><path class="cls-2" d="M176.5,195l-5.7-4h0a10.84,10.84,0,0,1-.4-1.88,3.7,3.7,0,0,0,1.1-1.82l.06,0c.5.4,1.45-3.85-.15-4.65,0,0-1.2-2.6-3.5-2s-3.59,1.5-3.69,2.4a12.84,12.84,0,0,0,0,2.25,1.94,1.94,0,0,1,.86-1.38,3.7,3.7,0,0,0,.34,5.21,3.51,3.51,0,0,0,.59.42c-.17.59-.41,1.37-.6,1.93h0l-1.74.87-3.8,2.4a11.83,11.83,0,0,0-2,4.1l-.12.52h20.26C177.37,197.38,176.5,195,176.5,195Z" transform="translate(-4.32 -17.84)"/></g><rect class="cls-12" x="154.12" y="161.17" width="18.9" height="18.9" rx="9.45"/><path class="cls-14" d="M64.89,242.31s-4.62-3-6.06-7.76.78-9.76.8-9.81l.1-.23.21.14c.05,0,4.63,3,6.06,7.76s-.78,9.76-.8,9.81l-.1.23Z" transform="translate(-4.32 -17.84)"/><path class="cls-2" d="M63.47,228.35c-1.75,7,2.25,14.05,2.25,14.05s6-4.54,7.7-11.57-1.81-14-1.81-14S65.22,221.31,63.47,228.35Z" transform="translate(-4.32 -17.84)"/><path class="cls-15" d="M71.36,217.4a53.76,53.76,0,0,0-6,24" transform="translate(-4.32 -17.84)"/><path class="cls-15" d="M60.36,225.4a26.72,26.72,0,0,0,4,16" transform="translate(-4.32 -17.84)"/></svg>